<svg xmlns="http://www.w3.org/2000/svg" version="1.1" xmlns:xlink="http://www.w3.org/1999/xlink" xmlns:svgjs="http://svgjs.dev/svgjs" width="1500" height="1500" viewBox="0 0 1500 1500"><rect width="1500" height="1500" fill="#ffffff"></rect><g transform="matrix(0.6666666666666666,0,0,0.6666666666666666,249.39393939393938,639.4988917805686)"><svg viewBox="0 0 396 88" data-background-color="#ffffff" preserveAspectRatio="xMidYMid meet" height="333" width="1500" xmlns="http://www.w3.org/2000/svg" xmlns:xlink="http://www.w3.org/1999/xlink"><g id="tight-bounds" transform="matrix(1,0,0,1,0.2400000000000091,-0.19775890400913454)"><svg viewBox="0 0 395.52 88.39551780801823" height="88.39551780801823" width="395.52"><g><svg viewBox="0 0 574.3623558645857 128.36533640797757" height="88.39551780801823" width="395.52"><g><rect width="5.612751344407383" height="122.82653199978809" x="158.53653817356215" y="2.769402204094739" fill="#4d7e3e" opacity="1" stroke-width="0" stroke="transparent" fill-opacity="1" class="rect-qz-0" data-fill-palette-color="primary" rx="1%" id="qz-0" data-palette-color="#4d7e3e"></rect></g><g transform="matrix(1,0,0,1,178.8423558645857,3.0749408409101235)"><svg viewBox="0 0 395.52 122.21545472615732" height="122.21545472615732" width="395.52"><g id="textblocktransform"><svg viewBox="0 0 395.52 122.21545472615732" height="122.21545472615732" width="395.52" id="textblock"><g><svg viewBox="0 0 395.52 62.23871273071462" height="62.23871273071462" width="395.52"><g transform="matrix(1,0,0,1,0,0)"><svg width="395.52" viewBox="1 -29.7 211.28 33.25" height="62.23871273071462" data-palette-color="#4d7e3e"><g class="wordmark-text-0" data-fill-palette-color="primary" id="text-0"><path d="M27.9-25.2L27.9-25.2Q27.9-28 24.95-28L24.95-28Q22.4-28 18.32-25.6 14.25-23.2 9.95-18.28 5.65-13.35 3.95-7.95L3.95-7.95Q3.25-5.8 3.25-3.98 3.25-2.15 4.3-0.8L4.3-0.8Q6.15 1.6 10.35 1.65L10.35 1.65Q10.65 1.65 10.9 1.65L10.9 1.65Q15.55 1.65 20.95-0.73 26.35-3.1 29.6-7.7L29.6-7.7Q29.85-8.05 30.13-7.85 30.4-7.65 30.4-7.5 30.4-7.35 30.3-7.25L30.3-7.25Q26.6-2.2 21.2 0.35 15.8 2.9 10.75 2.9L10.75 2.9Q5.45 2.9 2.75-0.1L2.75-0.1Q1-2.05 1-5.2L1-5.2Q1-10.5 5-16.6L5-16.6Q10.45-24.9 18.2-28.1L18.2-28.1Q21.2-29.3 23.95-29.3L23.95-29.3Q27.35-29.3 28.8-27.7L28.8-27.7Q29.75-26.6 29.75-25.15L29.75-25.15Q29.75-22.4 26.85-19.5 23.95-16.6 20.43-14.88 16.9-13.15 14.3-12.9L14.3-12.9Q13.25-12.8 13.3-13.45L13.3-13.45Q13.35-14.35 14.55-14.45L14.55-14.45Q18.55-14.8 21.9-16.88 25.25-18.95 27.05-22.4L27.05-22.4Q27.9-23.75 27.9-25.2ZM31.25 0.55L31.25 0.55Q30.45 0.55 29.52 0.08 28.6-0.4 27.95-1.28 27.3-2.15 27.3-3.15 27.3-4.15 27.75-5.05L27.75-5.05Q28.75-7.15 30.97-9.13 33.2-11.1 35.6-12.5 38-13.9 39.4-14.25 40.8-14.6 42.12-14.6 43.45-14.6 44.4-13.93 45.35-13.25 45.35-12.5L45.35-12.5Q45.35-12.25 45.3-12.2 45.25-12.15 45.05-12.25L45.05-12.25Q44.45-13.2 42.57-13.2 40.7-13.2 38.32-11.98 35.95-10.75 33.85-8.9L33.85-8.9Q32.1-7.25 30.77-5.18 29.45-3.1 29.45-2.15L29.45-2.15Q29.45-0.3 30.5-0.3 31.55-0.3 33.7-2L33.7-2Q37.25-5 38.55-6.4L38.55-6.4Q43.15-11.35 43.5-11.35L43.5-11.35Q44.1-11.35 44.95-11 45.8-10.65 45.5-10.15L45.5-10.15Q42.95-6.55 42.5-2.9L42.5-2.9Q42.45-2.45 42.45-1.75 42.45-1.05 42.85-0.6L42.85-0.6Q43.6 0.2 44.9-0.5 46.2-1.2 48.52-3.3 50.85-5.4 52.25-7.4L52.25-7.4Q52.45-7.65 52.7-7.53 52.95-7.4 52.95-7.3L52.95-7.3Q52.95-6.55 50.57-4.03 48.2-1.5 46.95-0.6L46.95-0.6Q44.6 1.15 42.6 1.15L42.6 1.15Q40.7 1.15 40.05-0.75L40.05-0.75Q39.9-1.35 39.9-2.1L39.9-2.1Q39.9-4.35 40.85-6.85L40.85-6.85Q40.65-6.75 39-4.85 37.35-2.95 35.17-1.2 33 0.55 31.25 0.55ZM58.14-13L58.14-13Q58.14-12.65 57.59-11.48 57.05-10.3 54.45-3.4L54.45-3.4Q56.24-5.6 58.99-8.5L58.99-8.5Q64.55-14.3 66.64-14.3L66.64-14.3Q67.09-14.3 67.52-14.05 67.94-13.8 67.94-12.93 67.94-12.05 67.39-10.98 66.84-9.9 66.14-8.35 65.44-6.8 65.19-6.4L65.19-6.4Q69.39-10.2 71.55-11.03 73.69-11.85 74.39-11.85 75.09-11.85 75.09-11.35L75.09-11.35Q75.09-11.05 74.34-9.9 73.59-8.75 72.69-6.5 71.8-4.25 71.69-3.35 71.59-2.45 71.59-1.75 71.59-1.05 72-0.6L72-0.6Q72.75 0.2 74.05-0.5 75.34-1.2 77.67-3.3 80-5.4 81.39-7.4L81.39-7.4Q81.59-7.65 81.87-7.53 82.15-7.4 82.15-7.28 82.15-7.15 82.05-7L82.05-7Q81.3-5.65 79.34-3.55L79.34-3.55Q76.14-0.1 74 0.7L74 0.7Q71.64 1.5 70.59 0.9 69.55 0.3 69.3-0.45 69.05-1.2 69.05-1.95L69.05-1.95Q69.05-4.3 69.97-6.65 70.89-9 71.44-9.85L71.44-9.85Q69.55-9.05 68.19-7.85L68.19-7.85Q66.14-6.05 64.89-4.7L64.89-4.7 63.89-3.6Q63.45-2.5 62.32-2.35 61.2-2.2 61.24-3.1L61.24-3.1Q61.34-4.05 63.09-7.35 64.84-10.65 64.84-11.03 64.84-11.4 64.44-11.4L64.44-11.4Q63.55-11.4 61.2-9.35L61.2-9.35Q59.64-7.9 56.62-3.88 53.59 0.15 53.2 0.4L53.2 0.4Q51.39 1.3 50.95 1.3 50.49 1.3 50.49 1.15 50.49 1 50.64 0.7 50.8 0.4 53.7-8L53.7-8Q52.59-6.3 51.7-5.4L51.7-5.4Q51.3-4.95 51.3-5.58 51.3-6.2 51.64-6.65L51.64-6.65Q53.89-9.6 54.95-11.65L54.95-11.65Q55.24-13.4 56.14-13.7L56.14-13.7Q56.7-13.9 57.42-13.7 58.14-13.5 58.14-13ZM94.79-13.5L94.79-13.5Q95.69-13.5 96.94-12.58 98.19-11.65 98.34-10.75L98.34-10.75Q98.39-10.4 98.39-10.1L98.39-10.1Q98.39-7.85 96.19-5.28 93.99-2.7 91.24-0.9L91.24-0.9Q86.99 2 82.79 2L82.79 2Q81.09 2 80.09 1.55L80.09 1.55Q79.29 1.15 82.09 1.15L82.09 1.15Q85.14 1.15 89.99-2.45L89.99-2.45Q94.69-5.75 95.69-10.35L95.69-10.35Q95.84-11.05 95.67-11.78 95.49-12.5 94.79-12.5L94.79-12.5Q92.54-12.5 88.89-9.35L88.89-9.35Q87.34-8.05 85.72-5.85 84.09-3.65 84.09-2.25L84.09-2.25Q84.09-2.05 84.17-1.83 84.24-1.6 83.99-1.1L83.99-1.1Q83.34 0.2 82.14-1.25L82.14-1.25Q81.84-2 81.84-2.8L81.84-2.8Q81.84-5.1 82.54-7.65L82.54-7.65Q82.34-7.45 81.67-6.43 80.99-5.4 80.09-4.4L80.09-4.4Q79.64-3.9 79.39-4.4L79.39-4.4Q79.34-4.5 79.34-4.67 79.34-4.85 79.54-5.1L79.54-5.1Q83.44-9.95 84.09-11.4L84.09-11.4Q84.99-13.9 86.84-17.93 88.69-21.95 90.24-24.35L90.24-24.35Q93.44-29.4 96.84-29.4L96.84-29.4Q97.44-29.4 98.09-29.25L98.09-29.25 99.09-28.9Q100.54-28.05 100.54-26.73 100.54-25.4 99.74-23.85L99.74-23.85Q98.44-21.2 94.14-17.18 89.84-13.15 85.79-10.35L85.79-10.35Q84.79-8.55 84.24-5.65L84.24-5.65Q86.09-8.4 89.07-10.95 92.04-13.5 94.79-13.5ZM93.19-18L93.19-18Q99.14-24 99.14-26.9L99.14-26.9Q99.14-28.1 98.24-28.1L98.24-28.1Q97.54-28.1 96.34-27.2L96.34-27.2Q91.19-23.25 86.34-12.35L86.34-12.35Q89.74-14.6 93.19-18ZM110.64-5.5L110.64-5.5Q111.54-7.35 111.54-8.35 111.54-9.35 111.32-9.93 111.09-10.5 111.52-10.9 111.94-11.3 112.59-11.2L112.59-11.2Q113.59-10.95 113.59-8.95 113.59-6.95 111.24-3.7L111.24-3.7Q111.29-2.35 112.64-2.35 113.99-2.35 116.74-5.25L116.74-5.25Q118.04-6.75 118.37-7.2 118.69-7.65 118.94-7.53 119.19-7.4 119.19-7.3L119.19-7.3Q119.19-6.8 117.39-4.7L117.39-4.7Q114.54-1.2 112.34-1.2L112.34-1.2Q110.89-1.2 110.29-2.45L110.29-2.45Q109.29-1.4 108.34-0.5L108.34-0.5Q106.39 1.15 103.99 1.15L103.99 1.15Q102.64 1.15 101.74 0.5L101.74 0.5Q99.99-0.55 99.99-3.25L99.99-3.25Q99.99-6.2 101.99-9.25L101.99-9.25Q103.14-11.05 104.69-12.4L104.69-12.4Q107.14-14.55 109.34-14.55L109.34-14.55Q109.89-14.55 110.39-14.4L110.39-14.4Q111.89-13.9 111.89-12.5L111.89-12.5Q111.89-11.35 111.29-11.35L111.29-11.35Q111.04-11.45 111.04-12.1L111.04-12.1Q111.04-13 110.04-13L110.04-13Q108.29-13 105.54-9.8 102.79-6.6 102.24-3.35L102.24-3.35Q102.14-2.8 102.14-2.13 102.14-1.45 102.59-0.58 103.04 0.3 104.27 0.3 105.49 0.3 106.94-0.8 108.39-1.9 109.54-3.6L109.54-3.6 109.39-3.9Q109.19-4.7 109.59-5.2 109.99-5.7 110.64-5.5ZM126.19 3.55L126.19 3.55Q121.69 3.55 121.69-0.2L121.69-0.2Q121.69-2.8 125.74-12.2L125.74-12.2Q130.49-23.2 131.09-26.2L131.09-26.2Q125.94-26.2 122.01-24.68 118.09-23.15 118.09-20.35L118.09-20.35Q118.09-19.6 118.49-19 118.89-18.4 119.29-18.15L119.29-18.15Q120.09-17.65 121.09-17.15L121.09-17.15Q121.69-16.7 121.29-16.6L121.29-16.6Q121.14-16.6 120.94-16.65L120.94-16.65Q119.79-16.9 118.44-18.1 117.09-19.3 117.04-20.85L117.04-20.85Q116.84-21.35 116.84-21.75L116.84-21.75Q116.84-24.15 119.06-25.8 121.29-27.45 124.06-27.93 126.84-28.4 128.54-28.4 130.24-28.4 131.19-28.35L131.19-28.35Q131.14-28.7 130.89-29.1 130.64-29.5 131.19-29.65L131.19-29.65Q131.24-29.65 131.34-29.65L131.34-29.65Q131.84-29.65 132.29-28.9L132.29-28.9 132.54-28.2Q135.39-27.8 137.29-26.95L137.29-26.95Q138.04-26.65 138.49-25.93 138.94-25.2 138.19-25.25L138.19-25.25Q137.74-25.25 136.54-25.68 135.34-26.1 132.59-26.2L132.59-26.2Q132.34-21.15 129.84-15.45L129.84-15.45Q125.04-4.25 125.04-0.3L125.04-0.3Q125.04 2.25 127.09 2.25L127.09 2.25Q129.59 2.25 134.19-1.25L134.19-1.25Q139.64-5.3 144.69-13.35L144.69-13.35Q145.34-14.4 147.14-17.35L147.14-17.35Q150.59-23.05 152.94-25.95L152.94-25.95Q154.44-27.8 156.31-28.75 158.19-29.7 159.24-29.7 160.29-29.7 160.84-29.43 161.39-29.15 161.39-28.93 161.39-28.7 161.14-28.7L161.14-28.7 160.59-28.75Q158.94-28.75 155.94-25.1L155.94-25.1Q154.04-22.8 150.66-18.25 147.29-13.7 145.79-11.75L145.79-11.75Q139.39-3.7 134.74-0.08 130.09 3.55 126.19 3.55ZM160.09-14.55L160.09-14.55Q162.79-14.55 162.79-11.95L162.79-11.95Q162.79-10.6 162.04-9.75L162.04-9.75Q160.79-7.9 157.99-6.53 155.19-5.15 153.24-5L153.24-5Q152.54-4.95 152.49-5.4L152.49-5.4Q152.44-5.6 152.61-5.65 152.79-5.7 152.89-5.7L152.89-5.7Q154.04-5.8 155.84-6.8L155.84-6.8Q159.19-8.6 160.74-10.5L160.74-10.5Q161.39-11.4 161.39-12.23 161.39-13.05 160.59-13.05L160.59-13.05Q159.94-13.05 158.84-12.5L158.84-12.5Q156.49-11.4 153.89-8.68 151.29-5.95 150.49-3.35L150.49-3.35Q150.24-2.55 150.24-1.78 150.24-1 150.89-0.3 151.54 0.4 152.89 0.4L152.89 0.4Q154.39 0.4 156.34-0.4L156.34-0.4Q161.99-2.7 165.04-7.35L165.04-7.35Q165.34-7.75 165.59-7.5L165.59-7.5Q165.79-7.4 165.79-7.25 165.79-7.1 165.64-6.9L165.64-6.9Q164.14-4.4 161.84-2.45L161.84-2.45Q157.39 1.35 153.19 1.35L153.19 1.35Q149.59 1.35 148.14-0.8L148.14-0.8Q147.59-1.65 147.59-2.85 147.59-4.05 148.24-5.7L148.24-5.7Q149.49-8.55 153.59-11.55 157.69-14.55 160.09-14.55ZM171.08 1.25L171.08 1.25Q168.53 1.25 168.53-1.83 168.53-4.9 172.93-9.4L172.93-9.4Q173.28-9.75 173.43-9.95L173.43-9.95 173.78-10.45Q174.48-11.4 174.43-11.65L174.43-11.65 174.28-12.1Q174.08-12.7 172.63-12.98 171.18-13.25 170.28-13.25L170.28-13.25Q165.78-6.9 165.08-6 164.38-5.1 164.13-5.25 163.88-5.4 163.88-5.6 163.88-5.8 164.18-6.2L164.18-6.2Q166.88-9.5 168.83-13.25L168.83-13.25Q168.23-13.35 167.93-13.68 167.63-14 167.88-14.78 168.13-15.55 169.41-16.85 170.68-18.15 171.63-18.6 172.58-19.05 172.83-19.15 173.08-19.25 173.38-19.25L173.38-19.25Q173.98-19.25 172.98-17.45L172.98-17.45 171.03-14.35Q173.28-14.2 174.88-14.2L174.88-14.2 176.63-14.25Q177.48-14.25 177.88-14.03 178.28-13.8 178.08-13.25L178.08-13.25Q177.73-12.3 176.33-10.7L176.33-10.7Q173.33-7.2 171.83-3.25L171.83-3.25Q171.48-2.3 171.48-1.6L171.48-1.6Q171.48-0.15 172.53-0.15L172.53-0.15Q172.88-0.15 173.86-0.7 174.83-1.25 177.13-3.33 179.43-5.4 180.83-7.4L180.83-7.4Q181.03-7.65 181.31-7.53 181.58-7.4 181.58-7.28 181.58-7.15 181.48-7L181.48-7Q180.73-5.65 178.78-3.55 176.83-1.45 174.98-0.15L174.98-0.15Q173.18 1.25 171.08 1.25ZM180.73 0.5L180.73 0.5Q180.08 1.25 180.46 1.7 180.83 2.15 181.31 2.15 181.78 2.15 182.28 2L182.28 2Q184.43 1.35 186.46-0.58 188.48-2.5 188.48-4.5L188.48-4.5Q188.48-5.6 186.03-6.9L186.03-6.9Q184.88-7.5 184.73-7.6L184.73-7.6Q183.38-8.5 183.03-9.4L183.03-9.4Q182.33-8.2 180.78-5.95L180.78-5.95Q180.43-5.55 180.13-5.78 179.83-6 180.08-6.4L180.08-6.4Q182.13-9.2 182.78-11.1L182.78-11.1Q183.13-13.85 186.78-16.05 190.43-18.25 193.43-18.25L193.43-18.25Q195.33-18.25 196.11-17.57 196.88-16.9 196.88-16.25 196.88-15.6 196.51-14.75 196.13-13.9 194.98-13.15L194.98-13.15Q194.68-12.95 194.48-13.25L194.48-13.25Q194.38-13.55 194.91-14.08 195.43-14.6 195.58-15.5 195.73-16.4 194.78-16.6L194.78-16.6Q194.63-16.6 194.48-16.6L194.48-16.6Q192.53-16.6 189.61-15.15 186.68-13.7 185.03-11.4L185.03-11.4Q184.38-10.55 184.38-9.68 184.38-8.8 185.58-8.1L185.58-8.1Q186.08-7.8 187.28-7.15 188.48-6.5 188.98-6.2 189.48-5.9 190.18-5.25 190.88-4.6 190.93-4.05L190.93-4.05Q191.18-2.55 189.53-0.75L189.53-0.75Q187.18 1.85 182.53 2.9L182.53 2.9Q181.48 3.15 180.41 3.15 179.33 3.15 178.93 2.35L178.93 2.35Q178.78 2.15 178.78 1.73 178.78 1.3 179.58 0.35L179.58 0.35Q180.33-0.4 181.98-1.1L181.98-1.1Q182.13-1.15 182.23-1.05 182.33-0.95 182.28-0.8 182.23-0.65 181.76-0.45 181.28-0.25 180.73 0.5ZM206.58-14.55L206.58-14.55Q209.28-14.55 209.28-11.95L209.28-11.95Q209.28-10.6 208.53-9.75L208.53-9.75Q207.28-7.9 204.48-6.53 201.68-5.15 199.73-5L199.73-5Q199.03-4.95 198.98-5.4L198.98-5.4Q198.93-5.6 199.1-5.65 199.28-5.7 199.38-5.7L199.38-5.7Q200.53-5.8 202.33-6.8L202.33-6.8Q205.68-8.6 207.23-10.5L207.23-10.5Q207.88-11.4 207.88-12.23 207.88-13.05 207.08-13.05L207.08-13.05Q206.43-13.05 205.33-12.5L205.33-12.5Q202.98-11.4 200.38-8.68 197.78-5.95 196.98-3.35L196.98-3.35Q196.73-2.55 196.73-1.78 196.73-1 197.38-0.3 198.03 0.4 199.38 0.4L199.38 0.4Q200.88 0.4 202.83-0.4L202.83-0.4Q208.48-2.7 211.53-7.35L211.53-7.35Q211.83-7.75 212.08-7.5L212.08-7.5Q212.28-7.4 212.28-7.25 212.28-7.1 212.13-6.9L212.13-6.9Q210.63-4.4 208.33-2.45L208.33-2.45Q203.88 1.35 199.68 1.35L199.68 1.35Q196.08 1.35 194.63-0.8L194.63-0.8Q194.08-1.65 194.08-2.85 194.08-4.05 194.73-5.7L194.73-5.7Q195.98-8.55 200.08-11.55 204.18-14.55 206.58-14.55Z" fill="#4d7e3e" data-fill-palette-color="primary"></path></g></svg></g></svg></g><g transform="matrix(1,0,0,1,0,76.9317790773308)"><svg viewBox="0 0 395.52 45.28367564882652" height="45.28367564882652" width="395.52"><g transform="matrix(1,0,0,1,0,0)"><svg width="395.52" viewBox="2.4 -31.04 322.08000000000004 36.88" height="45.28367564882652" data-palette-color="#1313c4"><path d="M23.16-20.56L23.16-20.56Q23.16-20.4 22.82-20.36 22.48-20.32 22.14-20.48 21.8-20.64 21.8-20.92L21.8-20.92Q21.8-25 22.72-27.5 23.64-30 25.12-30L25.12-30Q25.52-30 25.8-29.72 26.08-29.44 26.08-28.96L26.08-28.96Q24.24-27.12 23.48-23.6L23.48-23.6Q23.16-22.16 23.16-20.56ZM20.76-29.04L20.76-29.04Q15.24-29.04 10.88-22.6L10.88-22.6Q7.12-17.04 5.96-9.64L5.96-9.64Q5.56-7.2 5.56-5.16L5.56-5.16Q5.56-1.24 7 1.14 8.44 3.52 11.04 3.52L11.04 3.52Q14.56 3.52 17.04-0.52L17.04-0.52Q18.72-3.24 18.72-5.32L18.72-5.32Q18.72-6.24 18.24-6.24L18.24-6.24Q18.48-7.16 19.44-7.16L19.44-7.16Q20.56-7.16 20.56-5.56L20.56-5.56Q20.56-2.56 17.92 0.84L17.92 0.84Q14.76 4.88 10.52 4.88L10.52 4.88Q5.2 4.88 3.32-0.44L3.32-0.44Q2.4-2.92 2.4-6.06 2.4-9.2 3.44-13.08L3.44-13.08Q5.44-20.76 10.18-25.84 14.92-30.92 20.68-30.96L20.68-30.96Q21.48-30.96 21.84-30.44 22.2-29.92 22.16-29.44L22.16-29.44 22.16-28.92Q21.84-29.04 20.76-29.04ZM27.56 0L27.56 0Q24.28 0 24.28-5.16L24.28-5.16Q24.28-8.24 25.8-11.92L25.8-11.92Q27.92-17.08 31.36-18.96L31.36-18.96Q32.84-19.76 34.12-19.76 35.4-19.76 36.14-19.2 36.88-18.64 37.08-18.08L37.08-18.08 37.32-17.56Q37.2-16.88 36.64-16.88L36.64-16.88Q36-16.88 35.9-17.18 35.8-17.48 35.68-17.7 35.56-17.92 35.12-18.3 34.68-18.68 34.12-18.68L34.12-18.68Q31.52-18.68 29.4-14L29.4-14Q27-8.6 27-3.84L27-3.84Q27-1.44 27.96-1.44L27.96-1.44Q28.72-1.44 30.1-3.14 31.48-4.84 33-7.4L33-7.4Q35.64-11.8 37.28-15.04L37.28-15.04Q38.64-17.92 40.08-17.92L40.08-17.92Q40.84-17.92 40.84-17L40.84-17Q40.48-16.24 39.92-14.84 39.36-13.44 38.44-9.28 37.52-5.12 37.52-1 37.52 3.12 38.76 3.12L38.76 3.12Q39.24 3.12 39.64 2.7 40.04 2.28 40.36 1.44L40.36 1.44Q40.48 1 40.92 1L40.92 1Q41.08 1 41.16 1.12 41.24 1.24 41.16 1.52 41.08 1.8 40.88 2.3 40.68 2.8 40.02 3.64 39.36 4.48 38.64 4.48L38.64 4.48Q36.96 4.48 36.06 2.28 35.16 0.08 35.16-2.92 35.16-5.92 35.6-8.68L35.6-8.68 35.2-8.68Q30.12 0 27.56 0ZM53.11-4.88L53.11-4.88Q53.11-9.8 54.91-17.32L54.91-17.32Q55.03-17.72 54.67-17.68L54.67-17.68Q54.39-17.64 54.16-17.44L54.16-17.44Q52.39-15.96 50.27-11.96 48.16-7.96 46.88-4.66 45.59-1.36 45.59-0.8L45.59-0.8Q45.59-0.32 44.99-0.32L44.99-0.32Q43.79-0.32 43.79-3.48L43.79-3.48Q43.79-9.48 44.99-14.3 46.2-19.12 47.91-19.12L47.91-19.12Q48.67-19.12 48.67-18.28L48.67-18.28Q46.84-12.48 46.03-6.36L46.03-6.36 46.39-6.36Q51.67-19.56 56.11-19.56L56.11-19.56Q58.03-19.56 58.03-17.68L58.03-17.68Q56.16-12.08 55.31-6.64L55.31-6.64 55.63-6.64Q56.95-9.44 58.3-11.74 59.63-14.04 61.44-16.02 63.23-18 64.67-18L64.67-18Q66.59-18 66.59-16.16L66.59-16.16Q64.52-9.24 64.52-2.68L64.52-2.68Q64.52 1.56 65.8 1.56L65.8 1.56Q66.23 1.56 66.67 1.18 67.11 0.8 67.28 0.8L67.28 0.8Q67.83 0.8 67.23 1.68L67.23 1.68Q67.08 1.96 66.53 2.44 66 2.92 65.47 2.92L65.47 2.92Q63.91 2.92 63.05 0.74 62.19-1.44 62.19-4.92L62.19-4.92Q62.19-11.04 63.47-15.68L63.47-15.68Q63.55-15.96 63.27-15.96L63.27-15.96Q63.03-15.92 62.8-15.72L62.8-15.72Q60.52-13.76 57.71-8.46 54.91-3.16 54.91-2.2L54.91-2.2Q54.91-1.72 54.27-1.72L54.27-1.72Q53.11-1.72 53.11-4.88ZM77.55-3.68L77.55-3.68Q77.55-1.28 78.83-1.28L78.83-1.28Q80.47-1.28 82.43-5.68L82.43-5.68Q84.71-10.72 84.71-15.12L84.71-15.12Q84.71-18.12 83.15-18.12 81.59-18.12 79.65-15.58 77.71-13.04 76.27-9.88 74.83-6.72 73.81-4.18 72.79-1.64 72.79-1.36L72.79-1.36Q72.79-0.76 72.19-0.76L72.19-0.76Q70.99-0.76 70.99-3.96L70.99-3.96Q70.99-10.32 72.27-16.74 73.55-23.16 75.31-27.02 77.07-30.88 78.59-30.88L78.59-30.88Q79.23-30.88 79.23-30.24L79.23-30.24Q77.11-25.56 75.57-19 74.03-12.44 73.27-6.56L73.27-6.56 73.55-6.56Q75.39-11.24 77.75-14.96L77.75-14.96Q79.07-17.04 80.57-18.26 82.07-19.48 83.47-19.48L83.47-19.48Q86.31-19.48 86.99-15.8L86.99-15.8Q87.23-14.72 87.23-13.52L87.23-13.52Q87.23-10.56 85.95-7.08L85.95-7.08Q84.15-2.12 81.23-0.56L81.23-0.56Q80.23 0 79.15 0L79.15 0Q76.43 0 76.43-3.6L76.43-3.6Q76.43-5.52 77.49-8.02 78.55-10.52 80.27-11.72L80.27-11.72Q80.63-11.92 80.87-11.56L80.87-11.56Q80.91-11.36 80.83-11.28L80.83-11.28Q79.31-10.08 78.43-7.76 77.55-5.44 77.55-3.68ZM94.83 0.36L94.83 0.36Q89.91 0.36 89.91-6.4L89.91-6.4Q89.91-10.2 91.83-14L91.83-14Q94.27-18.8 97.63-18.8L97.63-18.8Q98.11-18.8 98.43-18.56 98.75-18.32 98.87-17.84L98.87-17.84Q96.35-17.84 94.51-13.8 92.67-9.76 92.67-5.84L92.67-5.84Q92.67-1.08 95.27-1.08L95.27-1.08Q96.75-1.08 98.35-3.34 99.95-5.6 101.01-9.28 102.07-12.96 102.07-16.68L102.07-16.68 102.07-17.16Q100.83-17.96 100.03-19.16 99.23-20.36 99.23-20.92 99.23-21.48 99.73-21.98 100.23-22.48 100.75-22.48L100.75-22.48Q101.51-22.48 102.23-21.12 102.95-19.76 103.23-18.04L103.23-18.04Q104.47-17.2 105.41-17.2 106.35-17.2 106.91-17.52L106.91-17.52Q106.91-16.96 106.51-16.52 106.11-16.08 105.27-16.08 104.43-16.08 103.35-16.48L103.35-16.48Q103.31-12.64 102.19-8.76 101.07-4.88 99.07-2.26 97.07 0.36 94.83 0.36ZM109.83 0L109.83 0Q106.47 0 106.47-5.16L106.47-5.16Q106.47-8.16 107.99-11.76L107.99-11.76Q110.07-16.8 113.47-18.6L113.47-18.6Q114.95-19.4 116.15-19.4 117.35-19.4 117.99-18.98 118.63-18.56 118.83-18.12L118.83-18.12 119.03-17.68Q118.91-17 118.31-17 117.71-17 117.45-17.66 117.19-18.32 116.23-18.32L116.23-18.32Q113.63-18.32 111.59-13.72L111.59-13.72Q109.23-8.52 109.23-3.88L109.23-3.88Q109.23-1.44 110.23-1.44L110.23-1.44Q111.03-1.44 112.57-3.42 114.11-5.4 115.75-8.24L115.75-8.24Q117.99-12.16 119.71-15.4L119.71-15.4Q121.15-21.64 123.21-26.3 125.27-30.96 126.63-30.96L126.63-30.96Q127.31-30.96 127.31-30.28L127.31-30.28Q126.35-28.2 125.05-24.6 123.75-21 122.85-17.74 121.95-14.48 121.21-9.96 120.47-5.44 120.47-1.44L120.47-1.44Q120.47 4.52 123.07 4.52L123.07 4.52Q124.07 4.52 124.93 3.66 125.79 2.8 126.15 1.96L126.15 1.96Q126.35 1.52 126.87 1.72L126.87 1.72Q127.07 1.8 127.03 1.96L127.03 1.96Q126.79 2.48 126.43 3.16 126.07 3.84 125.01 4.84 123.95 5.84 122.87 5.84L122.87 5.84Q118.11 5.84 118.11-3.12L118.11-3.12Q118.11-6.28 118.67-9.88L118.67-9.88 118.15-9.88Q112.51 0 109.83 0ZM126.98-3.4L126.98-3.4Q126.98-9.32 128.2-13.96 129.42-18.6 131.31-18.6L131.31-18.6Q132.22-18.6 132.22-17.6L132.22-17.6Q131.82-16.56 131.22-14.84 130.63-13.12 129.64-8.62 128.66-4.12 128.66-0.6L128.66-0.6Q128.66-0.04 128.06-0.04L128.06-0.04Q126.98-0.04 126.98-3.4ZM132.82-23.04L132.34-22.36Q131.5-22.36 131.5-23.96L131.5-23.96Q131.5-24.92 132.03-25.98 132.54-27.04 133.5-27.04L133.5-27.04Q134.31-27.04 134.31-26.12L134.31-26.12Q134.31-25.2 132.82-23.04L132.82-23.04ZM138.02 0L138.02 0Q134.74 0 134.74-5.16L134.74-5.16Q134.74-8.24 136.26-11.92L136.26-11.92Q138.38-17.08 141.82-18.96L141.82-18.96Q143.3-19.76 144.58-19.76 145.86-19.76 146.6-19.2 147.34-18.64 147.54-18.08L147.54-18.08 147.78-17.56Q147.66-16.88 147.1-16.88L147.1-16.88Q146.46-16.88 146.36-17.18 146.26-17.48 146.14-17.7 146.02-17.92 145.58-18.3 145.14-18.68 144.58-18.68L144.58-18.68Q141.98-18.68 139.86-14L139.86-14Q137.46-8.6 137.46-3.84L137.46-3.84Q137.46-1.44 138.42-1.44L138.42-1.44Q139.18-1.44 140.56-3.14 141.94-4.84 143.46-7.4L143.46-7.4Q146.1-11.8 147.74-15.04L147.74-15.04Q149.1-17.92 150.54-17.92L150.54-17.92Q151.3-17.92 151.3-17L151.3-17Q150.94-16.24 150.38-14.84 149.82-13.44 148.9-9.28 147.98-5.12 147.98-1 147.98 3.12 149.22 3.12L149.22 3.12Q149.7 3.12 150.1 2.7 150.5 2.28 150.82 1.44L150.82 1.44Q150.94 1 151.38 1L151.38 1Q151.54 1 151.62 1.12 151.7 1.24 151.62 1.52 151.54 1.8 151.34 2.3 151.14 2.8 150.48 3.64 149.82 4.48 149.1 4.48L149.1 4.48Q147.42 4.48 146.52 2.28 145.62 0.08 145.62-2.92 145.62-5.92 146.06-8.68L146.06-8.68 145.66-8.68Q140.58 0 138.02 0ZM196.06-0.92L196.06-0.92Q196.06 4.52 198.54 4.52L198.54 4.52Q200.14 4.52 201.22 2.16L201.22 2.16Q201.46 1.76 201.94 1.92L201.94 1.92Q202.14 2 202.04 2.26 201.94 2.52 201.74 2.9 201.54 3.28 201.02 4.08L201.02 4.08Q199.82 5.84 198.26 5.84L198.26 5.84Q193.42 5.84 193.42-1.84L193.42-1.84Q193.42-10.48 199.54-28.84L199.54-28.84Q199.7-29.32 199.36-29.32 199.02-29.32 198.62-28.96L198.62-28.96Q196.5-26.96 194.28-23.6 192.06-20.24 190.38-16.8L190.38-16.8Q187.42-10.84 186.02-6.88L186.02-6.88Q184.14-1.32 182.7-1.32L182.7-1.32Q181.86-1.32 181.86-2.16L181.86-2.16Q181.86-2.2 181.9-2.24L181.9-2.24Q186.9-20.36 186.9-25L186.9-25Q186.9-27.08 185.98-27.08L185.98-27.08Q184.14-27.08 180.18-20.22 176.22-13.36 174.22-6.48L174.22-6.48Q171.82 1.8 169.98 1.8L169.98 1.8Q169.14 1.8 169.14 0.92L169.14 0.92Q169.18 0.8 169.38 0.24 169.58-0.32 169.9-1.42 170.22-2.52 170.92-4.9 171.62-7.28 172.1-9.52L172.1-9.52Q173.7-16.96 173.7-20.24L173.7-20.24Q173.7-22 173.46-23.74 173.22-25.48 172.26-26.56 171.3-27.64 169.74-27.64L169.74-27.64Q167.3-27.64 166.3-25.6L166.3-25.6Q165.98-24.88 165.98-24.38 165.98-23.88 166.26-23.88L166.26-23.88Q166.14-23.32 165.3-23.32 164.46-23.32 164.46-24.4L164.46-24.4Q164.46-26.04 166.12-27.32 167.78-28.6 169.9-28.6 172.02-28.6 173.28-27.54 174.54-26.48 175.1-24.72L175.1-24.72Q176.02-21.8 176.02-18.4L176.02-18.4Q176.02-17.12 175.86-15.76L175.86-15.76 176.26-15.76Q182.62-28.64 186.94-28.64L186.94-28.64Q189.42-28.64 189.42-24.4L189.42-24.4Q189.42-22.36 188.5-17.24L188.5-17.24 188.86-17.24Q196.18-31.04 200.86-31.04L200.86-31.04Q202.66-31.04 202.66-29.04L202.66-29.04Q201.42-25.96 199.9-20.64L199.9-20.64Q196.06-7.48 196.06-0.92ZM213.62-19.4L213.62-19.4Q216.66-19.4 216.66-15.84L216.66-15.84Q216.66-13.8 215.3-11.56L215.3-11.56Q212.98-7.84 209.14-7.84L209.14-7.84Q208.54-7.84 208.14-8.04 207.74-8.24 207.54-8.64L207.54-8.64Q210.38-8.64 212.74-11.92L212.74-11.92Q214.66-14.56 214.66-16.76L214.66-16.76Q214.66-18.4 213.34-18.4L213.34-18.4Q210.7-18.4 208.42-14.28L208.42-14.28Q205.98-9.8 205.98-5.08L205.98-5.08Q205.98-1.08 208.26-0.28L208.26-0.28Q208.7-0.12 209.38-0.12 210.06-0.12 210.81-0.46 211.58-0.8 212.09-1.28L212.09-1.28Q213.14-2.24 213.81-3.4L213.81-3.4Q213.98-3.72 214.42-3.72L214.42-3.72Q215.14-3.72 215.09-3.48L215.09-3.48Q214.98-3.04 214.2-2 213.42-0.96 212.76-0.34 212.09 0.28 211.04 0.78 209.98 1.28 208.9 1.28L208.9 1.28Q204.66 1.28 203.5-2.72L203.5-2.72Q203.14-4.08 203.14-5.52L203.14-5.52Q203.14-8.2 204.38-11.36L204.38-11.36Q206.34-16.16 209.78-18.28L209.78-18.28Q211.66-19.4 213.62-19.4ZM221.09-17.32L221.09-17.32Q219.53-17.32 219.53-18.6L219.53-18.6Q219.53-19.08 219.93-19.2L219.93-19.2Q219.97-19.24 220.05-19.24L220.05-19.24Q220.29-18.96 220.95-18.96 221.61-18.96 223.05-19.04L223.05-19.04Q224.93-24.12 226.65-24.12L226.65-24.12Q227.33-24.12 227.33-23.36L227.33-23.36Q226.69-21.76 225.89-19.24L225.89-19.24Q229.85-19.68 231.05-19.68L231.05-19.68Q231.37-19.68 231.37-19.36L231.37-19.36Q231.37-18.72 230.53-18.72L230.53-18.72Q230.09-18.72 225.45-17.88L225.45-17.88Q222.29-7.88 222.29-1.68 222.29 4.52 224.77 4.52L224.77 4.52Q225.77 4.52 226.65 3.66 227.53 2.8 227.89 1.96L227.89 1.96Q228.05 1.52 228.57 1.72L228.57 1.72Q228.81 1.8 228.73 1.96L228.73 1.96Q228.49 2.48 228.13 3.16 227.77 3.84 226.73 4.84 225.69 5.84 224.61 5.84L224.61 5.84Q219.85 5.84 219.85-2.44L219.85-2.44Q219.85-9.44 222.45-17.4L222.45-17.4Q221.89-17.32 221.09-17.32ZM233.65 0L233.65 0Q230.37 0 230.37-5.16L230.37-5.16Q230.37-8.24 231.89-11.92L231.89-11.92Q234.01-17.08 237.45-18.96L237.45-18.96Q238.93-19.76 240.21-19.76 241.49-19.76 242.23-19.2 242.97-18.64 243.17-18.08L243.17-18.08 243.41-17.56Q243.29-16.88 242.73-16.88L242.73-16.88Q242.09-16.88 241.99-17.18 241.89-17.48 241.77-17.7 241.65-17.92 241.21-18.3 240.77-18.68 240.21-18.68L240.21-18.68Q237.61-18.68 235.49-14L235.49-14Q233.09-8.6 233.09-3.84L233.09-3.84Q233.09-1.44 234.05-1.44L234.05-1.44Q234.81-1.44 236.19-3.14 237.57-4.84 239.09-7.4L239.09-7.4Q241.73-11.8 243.37-15.04L243.37-15.04Q244.73-17.92 246.17-17.92L246.17-17.92Q246.93-17.92 246.93-17L246.93-17Q246.57-16.24 246.01-14.84 245.45-13.44 244.53-9.28 243.61-5.12 243.61-1 243.61 3.12 244.85 3.12L244.85 3.12Q245.33 3.12 245.73 2.7 246.13 2.28 246.45 1.44L246.45 1.44Q246.57 1 247.01 1L247.01 1Q247.17 1 247.25 1.12 247.33 1.24 247.25 1.52 247.17 1.8 246.97 2.3 246.77 2.8 246.11 3.64 245.45 4.48 244.73 4.48L244.73 4.48Q243.05 4.48 242.15 2.28 241.25 0.08 241.25-2.92 241.25-5.92 241.69-8.68L241.69-8.68 241.29-8.68Q236.21 0 233.65 0ZM262.05-18.12L262.05-18.12Q263.21-17.24 264.27-17.24 265.33-17.24 265.77-17.52L265.77-17.52Q265.77-17 265.31-16.54 264.85-16.08 263.99-16.08 263.13-16.08 262.13-16.48L262.13-16.48Q262.01-12.72 260.69-8.78 259.37-4.84 257.29-2.18 255.21 0.48 253.15 0.48 251.09 0.48 250.21-1.22 249.33-2.92 249.33-5.12L249.33-5.12Q249.33-7.76 250.07-10.78 250.81-13.8 251.81-15.64 252.81-17.48 253.61-17.48 254.41-17.48 254.41-16.64L254.41-16.64Q251.89-7.92 251.89-4.4 251.89-0.88 253.45-0.88L253.45-0.88Q254.81-0.88 256.55-3.24 258.29-5.6 259.57-9.46 260.85-13.32 260.85-17L260.85-17 260.85-17.24Q259.69-18.08 258.97-19.24 258.25-20.4 258.25-20.98 258.25-21.56 258.77-22.04 259.29-22.52 259.89-22.52L259.89-22.52Q260.61-22.52 261.23-21.18 261.85-19.84 262.05-18.12ZM275.41-19.4L275.41-19.4Q278.45-19.4 278.45-15.84L278.45-15.84Q278.45-13.8 277.09-11.56L277.09-11.56Q274.77-7.84 270.93-7.84L270.93-7.84Q270.33-7.84 269.93-8.04 269.53-8.24 269.33-8.64L269.33-8.64Q272.17-8.64 274.53-11.92L274.53-11.92Q276.45-14.56 276.45-16.76L276.45-16.76Q276.45-18.4 275.13-18.4L275.13-18.4Q272.49-18.4 270.21-14.28L270.21-14.28Q267.77-9.8 267.77-5.08L267.77-5.08Q267.77-1.08 270.05-0.28L270.05-0.28Q270.49-0.12 271.17-0.12 271.85-0.12 272.61-0.46 273.37-0.8 273.89-1.28L273.89-1.28Q274.93-2.24 275.61-3.4L275.61-3.4Q275.77-3.72 276.21-3.72L276.21-3.72Q276.93-3.72 276.89-3.48L276.89-3.48Q276.77-3.04 275.99-2 275.21-0.96 274.55-0.34 273.89 0.28 272.83 0.78 271.77 1.28 270.69 1.28L270.69 1.28Q266.45 1.28 265.29-2.72L265.29-2.72Q264.93-4.08 264.93-5.52L264.93-5.52Q264.93-8.2 266.17-11.36L266.17-11.36Q268.13-16.16 271.57-18.28L271.57-18.28Q273.45-19.4 275.41-19.4ZM293.24-11.48L293.24-11.48Q291.72-11.48 291.72-14.8L291.72-14.8Q291.72-16.68 292.44-18.32L292.44-18.32Q289.72-15.96 286.36-9.54 283-3.12 283-1.16L283-1.16Q283-0.68 282.36-0.68L282.36-0.68Q281.2-0.68 281.2-3.84L281.2-3.84Q281.2-9.8 282.4-14.64 283.6-19.48 285.32-19.48L285.32-19.48Q286.08-19.48 286.08-18.6L286.08-18.6Q284.24-12.76 283.44-6.64L283.44-6.64 283.72-6.64Q286.96-14.12 290.88-18.32L290.88-18.32Q293.12-20.72 294.96-20.72L294.96-20.72Q295.36-20.72 295.62-20.48 295.88-20.24 295.88-19.88L295.88-19.88Q295.6-19.6 295.2-19.04 294.8-18.48 294.12-16.38 293.44-14.28 293.44-11.8L293.44-11.8Q293.44-11.48 293.24-11.48ZM298.68-1.36L298.68-1.36Q298.68 1.44 300.48 1.44L300.48 1.44Q302.16 1.44 303.62-1.32 305.08-4.08 305.08-8.28L305.08-8.28Q305.08-10.32 304.34-14.04 303.6-17.76 303.6-18.9 303.6-20.04 303.68-20.4L303.68-20.4Q303.16-19.56 300.68-14.82 298.2-10.08 296.28-7.32L296.28-7.32Q296.12-7.16 295.84-7.22 295.56-7.28 295.38-7.46 295.2-7.64 295.2-7.72 295.2-7.8 295.24-7.84L295.24-7.84Q297.12-10.56 299.62-15.34 302.12-20.12 303.8-22.48 305.48-24.84 307.12-24.84L307.12-24.84Q307.96-24.84 307.96-24.12L307.96-24.12Q307.96-23.64 307.28-22.84L307.28-22.84Q305.12-20.4 305.12-17.84L305.12-17.84Q305.12-16.32 306.28-11.98 307.44-7.64 307.44-5.68L307.44-5.68Q307.44-2.16 305.48 0.3 303.52 2.76 301.04 2.76L301.04 2.76Q297.52 2.76 297.52-1.28L297.52-1.28Q297.52-4.32 299.38-7.64 301.24-10.96 303.12-12.12L303.12-12.12Q303.48-12.36 303.58-11.84 303.68-11.32 303.44-11.16L303.44-11.16Q301.32-9.96 299.76-6.04L299.76-6.04Q298.68-3.28 298.68-1.36ZM321.44-19.4L321.44-19.4Q324.48-19.4 324.48-15.84L324.48-15.84Q324.48-13.8 323.12-11.56L323.12-11.56Q320.8-7.84 316.96-7.84L316.96-7.84Q316.36-7.84 315.96-8.04 315.56-8.24 315.36-8.64L315.36-8.64Q318.2-8.64 320.56-11.92L320.56-11.92Q322.48-14.56 322.48-16.76L322.48-16.76Q322.48-18.4 321.16-18.4L321.16-18.4Q318.52-18.4 316.24-14.28L316.24-14.28Q313.8-9.8 313.8-5.08L313.8-5.08Q313.8-1.08 316.08-0.28L316.08-0.28Q316.52-0.12 317.2-0.12 317.88-0.12 318.64-0.46 319.4-0.8 319.92-1.28L319.92-1.28Q320.96-2.24 321.64-3.4L321.64-3.4Q321.8-3.72 322.24-3.72L322.24-3.72Q322.96-3.72 322.92-3.48L322.92-3.48Q322.8-3.04 322.02-2 321.24-0.96 320.58-0.34 319.92 0.28 318.86 0.78 317.8 1.28 316.72 1.28L316.72 1.28Q312.48 1.28 311.32-2.72L311.32-2.72Q310.96-4.08 310.96-5.52L310.96-5.52Q310.96-8.2 312.2-11.36L312.2-11.36Q314.16-16.16 317.6-18.28L317.6-18.28Q319.48-19.4 321.44-19.4Z" opacity="1" transform="matrix(1,0,0,1,0,0)" fill="#1313c4" class="slogan-text-1" data-fill-palette-color="secondary" id="text-1"></path></svg></g></svg></g></svg></g></svg></g><g><svg viewBox="0 0 143.84347182694597 128.36533640797757" height="128.36533640797757" width="143.84347182694597"><g><svg xmlns="http://www.w3.org/2000/svg" xmlns:xlink="http://www.w3.org/1999/xlink" version="1.1" x="0" y="0" viewBox="15.2 18.900000000000002 69.7 62.19999999999999" enable-background="new 0 0 100 100" xml:space="preserve" height="128.36533640797757" width="143.84347182694597" class="icon-icon-0" data-fill-palette-color="accent" id="icon-0"><g fill="#4d7e3e" data-fill-palette-color="accent"><path d="M60 53.5c1.1 0 2-0.9 2-2s-0.9-2-2-2h-8v-5.3c3.7-0.9 6.5-4.3 6.5-8.3 0-4.7-3.8-8.5-8.5-8.5s-8.5 3.8-8.5 8.5c0 4 2.8 7.3 6.5 8.3v5.3h-8c-1.1 0-2 0.9-2 2s0.9 2 2 2h8v6.2l-9.4 9.4c-0.8 0.8-0.8 2 0 2.8 0.4 0.4 0.9 0.6 1.4 0.6s1-0.2 1.4-0.6l8.6-8.6 8.6 8.6c0.4 0.4 0.9 0.6 1.4 0.6s1-0.2 1.4-0.6c0.8-0.8 0.8-2 0-2.8L52 59.7v-6.2H60zM50 40.5c-2.5 0-4.5-2-4.5-4.5s2-4.5 4.5-4.5 4.5 2 4.5 4.5S52.5 40.5 50 40.5z" fill="#4d7e3e" data-fill-palette-color="accent"></path><path d="M84.8 41.7c0-12.6-15.6-22.8-34.8-22.8S15.2 29.1 15.2 41.7l0 0v20.9l0 0c0 7.6 5.7 14.4 14.5 18.5V60.2L23 51.7c4.6-4.2 11.4-7.2 19.5-8.4-1.9-1.9-3-4.5-3-7.3 0-5.8 4.7-10.5 10.5-10.5S60.5 30.2 60.5 36c0 2.8-1.1 5.4-3 7.3 8 1.2 14.9 4.2 19.5 8.4l-6.6 8.5v20.9c8.8-4.1 14.5-10.9 14.5-18.5l0 0L84.8 41.7 84.8 41.7z" fill="#4d7e3e" data-fill-palette-color="accent"></path></g></svg></g></svg></g></svg></g><defs></defs></svg><rect width="395.52" height="88.39551780801823" fill="none" stroke="none" visibility="hidden"></rect></g></svg></g></svg>