<svg width="500" height="500" viewBox="0 0 500 500" fill="none" xmlns="http://www.w3.org/2000/svg">
<path d="M365.385 145.299L309.83 144.906L252.138 209.402L324.787 207.265L333.334 226.496L365.385 145.299Z" fill="#69FF93"/>
<path d="M237.18 290.598H168.804L162.394 275.641L132.479 350.427C138.117 350.479 144.47 350.441 151.355 350.4C160.631 350.344 170.871 350.282 181.625 350.427L237.18 290.598Z" fill="#69FF93"/>
<path fill-rule="evenodd" clip-rule="evenodd" d="M500 0H0V500H500V0ZM258.548 435.897L411.826 259.073L335.471 228.633L344.018 245.727L170.941 435.801H64.2185L64.1034 192.308L108.975 141.026H64.1034V64.1027L236.643 64.2827L79.0606 239.316L160.257 269.231L151.71 254.274L325.001 64.2027H435.778L435.898 303.419L393.163 354.701L435.898 354.701V435.897L258.548 435.897Z" fill="#69FF93"/>
</svg>
