<svg xmlns="http://www.w3.org/2000/svg" version="1.1" xmlns:xlink="http://www.w3.org/1999/xlink" xmlns:svgjs="http://svgjs.dev/svgjs" width="1500" height="473" viewBox="0 0 1500 473"><g transform="matrix(1,0,0,1,-0.9090909090909918,0.9233497690941874)"><svg viewBox="0 0 396 125" data-background-color="#ffffff" preserveAspectRatio="xMidYMid meet" height="473" width="1500" xmlns="http://www.w3.org/2000/svg" xmlns:xlink="http://www.w3.org/1999/xlink"><g id="tight-bounds" transform="matrix(1,0,0,1,0.2400000000000091,-0.24401420959148368)"><svg viewBox="0 0 395.52 125.48802841918295" height="125.48802841918295" width="395.52"><g><svg viewBox="0 0 395.52 125.48802841918295" height="125.48802841918295" width="395.52"><g><svg viewBox="0 0 395.52 125.48802841918295" height="125.48802841918295" width="395.52"><g id="textblocktransform"><svg viewBox="0 0 395.52 125.48802841918295" height="125.48802841918295" width="395.52" id="textblock"><g><svg viewBox="0 0 395.52 125.48802841918295" height="125.48802841918295" width="395.52"><g transform="matrix(1,0,0,1,0,0)"><svg width="395.52" viewBox="1.86 -28.88 109.95 34.89" height="125.48802841918295" data-palette-color="#003231"><path d="M31.84-28.2L31.84 0 23.58 0 23.58-3.37Q22.12-1.37 20.06-0.4 17.99 0.56 15.53 0.56L15.53 0.56Q12.3 0.56 9.77-0.59 7.23-1.73 5.47-3.72 3.71-5.71 2.78-8.4 1.86-11.08 1.86-14.16L1.86-14.16Q1.86-17.24 2.78-19.92 3.71-22.61 5.47-24.6 7.23-26.59 9.77-27.73 12.3-28.88 15.53-28.88L15.53-28.88Q17.16-28.88 18.64-28.39 20.12-27.91 21.35-27.01 22.58-26.12 23.52-24.87 24.46-23.61 25-22.07L25-22.07 28.66-28.2 31.84-28.2ZM23.54-14.16L23.54-14.16Q23.54-15.26 23.43-16.48 23.32-17.7 23.05-18.9 22.78-20.09 22.3-21.18 21.83-22.27 21.08-23.11 20.34-23.95 19.29-24.44 18.24-24.93 16.85-24.93L16.85-24.93Q15.45-24.93 14.43-24.43 13.4-23.93 12.67-23.08 11.94-22.24 11.46-21.14 10.99-20.04 10.72-18.85 10.45-17.65 10.34-16.44 10.23-15.23 10.23-14.16L10.23-14.16Q10.23-13.09 10.34-11.87 10.45-10.64 10.72-9.45 10.99-8.25 11.46-7.15 11.94-6.05 12.67-5.21 13.4-4.37 14.43-3.87 15.45-3.37 16.85-3.37L16.85-3.37Q18.12-3.37 19.1-3.89 20.09-4.42 20.84-5.3 21.58-6.18 22.09-7.3 22.61-8.42 22.92-9.62 23.24-10.82 23.39-12 23.54-13.18 23.54-14.16ZM62.99-9.01L62.99-9.01Q62.99-7.15 62.45-5.71 61.91-4.27 60.98-3.21 60.06-2.15 58.79-1.43 57.52-0.71 56.06-0.27 54.61 0.17 53.02 0.37 51.44 0.56 49.88 0.56L49.88 0.56Q47.78 0.56 46.16 0.29 44.55 0.02 43.09-0.57 41.62-1.17 40.17-2.12 38.72-3.08 36.94-4.44L36.94-4.44 41.75-8.37Q42.4-7.13 43.49-6.12 44.58-5.1 45.75-4.37 46.92-3.64 48.02-3.25 49.12-2.86 49.8-2.86L49.8-2.86Q50.36-2.86 51.07-2.89 51.78-2.93 52.51-3.04 53.24-3.15 53.95-3.37 54.66-3.59 55.21-3.97 55.76-4.35 56.09-4.92 56.42-5.49 56.42-6.3L56.42-6.3Q56.42-7.13 55.99-7.75 55.56-8.37 54.88-8.84 54.2-9.3 53.32-9.62 52.44-9.94 51.55-10.18 50.66-10.42 49.83-10.61 49-10.79 48.39-10.96L48.39-10.96Q47.26-11.28 46.02-11.61 44.77-11.94 43.55-12.37 42.33-12.79 41.22-13.38 40.11-13.96 39.27-14.78 38.43-15.6 37.92-16.71 37.42-17.82 37.42-19.31L37.42-19.31Q37.42-22.05 38.51-23.89 39.6-25.73 41.38-26.84 43.16-27.95 45.43-28.42 47.7-28.88 50.05-28.88L50.05-28.88Q51.66-28.88 53.44-28.55 55.22-28.22 56.91-27.58 58.59-26.93 60.06-26 61.52-25.07 62.5-23.88L62.5-23.88 57.69-19.92Q57.15-21.39 56.28-22.44 55.42-23.49 54.4-24.16 53.39-24.83 52.33-25.15 51.27-25.46 50.36-25.46L50.36-25.46Q49.48-25.46 48.39-25.39 47.29-25.32 46.32-24.98 45.36-24.63 44.69-23.94 44.02-23.24 44.02-22.02L44.02-22.02Q44.02-21.14 44.42-20.52 44.82-19.9 45.48-19.45 46.14-18.99 46.98-18.69 47.82-18.38 48.7-18.15 49.58-17.92 50.41-17.75 51.24-17.58 51.9-17.38L51.9-17.38Q53.02-17.07 54.28-16.74 55.54-16.41 56.76-15.98 57.98-15.55 59.12-14.98 60.25-14.4 61.11-13.57 61.96-12.74 62.47-11.63 62.99-10.52 62.99-9.01ZM111.81-16.46L111.81-16.46Q111.81-13.55 111.13-10.4 110.44-7.25 109.21-4.26 107.98-1.27 106.25 1.39 104.51 4.05 102.39 6.01L102.39 6.01 99.29 4.32Q100 3.05 100.58 1.46 101.17-0.12 101.66-1.88 102.14-3.64 102.51-5.49 102.88-7.35 103.13-9.19 103.39-11.04 103.51-12.77 103.63-14.5 103.63-16.02L103.63-16.02Q103.63-16.87 103.58-17.87 103.54-18.87 103.38-19.87 103.22-20.87 102.9-21.79 102.58-22.71 102.03-23.43 101.48-24.15 100.67-24.57 99.85-25 98.7-25L98.7-25Q97.58-25 96.78-24.4 95.99-23.8 95.43-22.85 94.87-21.9 94.54-20.7 94.21-19.51 94.04-18.3 93.87-17.09 93.81-15.99 93.75-14.89 93.75-14.14L93.75-14.14 93.75 0 85.52 0 85.52-13.13Q85.52-13.99 85.54-15.2 85.57-16.41 85.48-17.72 85.4-19.04 85.16-20.35 84.93-21.66 84.43-22.68 83.93-23.71 83.08-24.35 82.22-25 80.93-25L80.93-25Q79.83-25 79.08-24.39 78.34-23.78 77.84-22.81 77.34-21.85 77.06-20.64 76.78-19.43 76.64-18.23 76.51-17.02 76.48-15.93 76.46-14.84 76.46-14.14L76.46-14.14 76.46 0 68.18 0 68.18-28.2 71.36-28.2 74.38-21.63Q75.41-25.05 77.62-26.97 79.83-28.88 83.49-28.88L83.49-28.88Q86.79-28.88 88.96-27.51 91.13-26.15 92.38-23.07L92.38-23.07Q93.09-24.41 93.95-25.49 94.82-26.56 95.88-27.32 96.94-28.08 98.24-28.48 99.53-28.88 101.09-28.88L101.09-28.88Q103.97-28.88 106.01-27.94 108.05-27 109.35-25.34 110.64-23.68 111.23-21.4 111.81-19.12 111.81-16.46Z" opacity="1" transform="matrix(1,0,0,1,0,0)" fill="#003231" class="wordmark-text-0" data-fill-palette-color="primary" id="text-0"></path></svg></g></svg></g></svg></g></svg></g></svg></g><defs></defs></svg><rect width="395.52" height="125.48802841918295" fill="none" stroke="none" visibility="hidden"></rect></g></svg></g></svg>