<svg width="56" height="56" fill="none" viewBox="0 0 56 56" xmlns="http://www.w3.org/2000/svg">
    <g clip-path="url(#sol)">
        <path fill="url(#solfoundation)"
              d="m59.127 43.477-9.81 10.541a2.277 2.277 0 0 1-1.668.726H1.14a1.138 1.138 0 0 1-1.123-1.335c.038-.22.139-.422.29-.585l9.819-10.541a2.277 2.277 0 0 1 1.662-.725h46.508a1.137 1.137 0 0 1 1.044.686 1.144 1.144 0 0 1-.212 1.233Zm-9.81-21.226a2.277 2.277 0 0 0-1.668-.726H1.14A1.138 1.138 0 0 0 .016 22.86c.038.219.139.422.29.585l9.819 10.54a2.277 2.277 0 0 0 1.662.726h46.508a1.139 1.139 0 0 0 1.122-1.334 1.142 1.142 0 0 0-.29-.585l-9.81-10.542ZM1.138 14.678h46.51a2.273 2.273 0 0 0 1.667-.726l9.811-10.54a1.142 1.142 0 0 0-.833-1.92H11.788a2.275 2.275 0 0 0-1.662.725L.309 12.759a1.142 1.142 0 0 0 .83 1.92Z" />
    </g>
    <defs>
        <linearGradient id="solfoundation" x1="5.017" x2="53.889" y1="56.013" y2="1.019" gradientUnits="userSpaceOnUse">
            <stop offset=".08" stop-color="#9945FF" />
            <stop offset=".3" stop-color="#8752F3" />
            <stop offset=".5" stop-color="#5497D5" />
            <stop offset=".6" stop-color="#43B4CA" />
            <stop offset=".72" stop-color="#28E0B9" />
            <stop offset=".97" stop-color="#19FB9B" />
        </linearGradient>
        <clipPath id="sol">
            <path fill="#fff" d="M0 1.493h59.434v53.25H0z"/>
        </clipPath>
    </defs>
</svg>
