<?xml version="1.0" standalone="no"?>
<!DOCTYPE svg PUBLIC "-//W3C//DTD SVG 20010904//EN"
 "http://www.w3.org/TR/2001/REC-SVG-20010904/DTD/svg10.dtd">
<svg version="1.0" xmlns="http://www.w3.org/2000/svg"
 width="300.000000pt" height="300.000000pt" viewBox="0 0 300.000000 300.000000"
 preserveAspectRatio="xMidYMid meet">

<g transform="translate(0.000000,300.000000) scale(0.100000,-0.100000)"
fill="#000000" stroke="none">
<path d="M0 2625 l0 -375 125 0 125 0 0 250 0 250 250 0 250 0 0 125 0 125
-375 0 -375 0 0 -375z"/>
<path d="M1000 2315 l0 -65 440 0 440 0 0 65 0 65 -440 0 -440 0 0 -65z"/>
<path d="M1438 1753 l-568 -3 0 -60 0 -60 -60 0 -60 0 -2 -187 -3 -188 -60 0
-60 0 0 -65 0 -65 60 0 60 -1 3 -562 2 -562 66 0 66 0 -4 123 c-1 67 -2 236 0
375 l2 252 60 0 60 0 0 -125 0 -125 65 0 65 0 0 -60 0 -60 60 0 60 0 0 -190 0
-190 60 0 60 0 0 60 0 60 190 0 190 0 0 65 0 64 63 3 62 3 1 60 c1 44 5 60 15
61 8 0 35 2 62 2 l47 2 0 60 0 60 60 0 60 0 2 313 3 312 60 1 60 2 3 251 2
251 -59 0 -60 0 -3 63 -3 62 -60 0 c-33 0 -315 -1 -627 -2z m562 -193 l0 -60
60 0 60 0 0 -125 0 -126 -57 3 -58 3 -3 123 -3 122 -439 0 -440 0 0 -125 0
-125 -60 0 -60 0 0 125 0 125 59 0 c66 0 68 2 67 73 l-1 47 438 0 437 0 0 -60z
m0 -370 l0 -60 -437 0 -438 0 1 53 c1 28 2 55 3 60 0 4 197 7 436 7 l435 0 0
-60z m-122 -442 l2 -248 -315 0 -315 0 0 125 0 125 -65 0 -65 0 0 118 c0 65 3
122 7 125 4 4 173 6 377 5 l371 -3 3 -247z"/>
<path d="M1372 688 l3 -63 188 -3 187 -2 0 65 0 65 -190 0 -191 0 3 -62z"/>
<path d="M2750 500 l0 -250 -250 0 -250 0 0 -125 0 -125 375 0 375 0 0 375 0
375 -125 0 -125 0 0 -250z"/>
</g>
</svg>
